<mxfile host="app.diagrams.net" modified="2023-03-04T07:41:51.528Z" agent="5.0 (Windows NT 10.0; Win64; x64) AppleWebKit/537.36 (KHTML, like Gecko) Chrome/93.0.4577.63 Safari/537.36" etag="hZ7YuaQ21B77dXe-wGn_" version="20.8.20" type="github">
  <diagram name="第 1 页" id="EKEydozNS6sU97w0jHo2">
    <mxGraphModel dx="1376" dy="664" grid="1" gridSize="10" guides="1" tooltips="1" connect="1" arrows="1" fold="1" page="1" pageScale="1" pageWidth="1500" pageHeight="1100" math="0" shadow="0">
      <root>
        <mxCell id="0" />
        <mxCell id="1" parent="0" />
        <mxCell id="02rroqqpWlZLRVG9VPpe-22" style="edgeStyle=none;rounded=0;orthogonalLoop=1;jettySize=auto;html=1;entryX=0;entryY=0.5;entryDx=0;entryDy=0;fontSize=13;" edge="1" parent="1" source="02rroqqpWlZLRVG9VPpe-2" target="02rroqqpWlZLRVG9VPpe-7">
          <mxGeometry relative="1" as="geometry" />
        </mxCell>
        <mxCell id="02rroqqpWlZLRVG9VPpe-35" value="default" style="edgeLabel;html=1;align=center;verticalAlign=middle;resizable=0;points=[];fontSize=13;" vertex="1" connectable="0" parent="02rroqqpWlZLRVG9VPpe-22">
          <mxGeometry x="0.132" relative="1" as="geometry">
            <mxPoint as="offset" />
          </mxGeometry>
        </mxCell>
        <mxCell id="02rroqqpWlZLRVG9VPpe-23" style="edgeStyle=none;rounded=0;orthogonalLoop=1;jettySize=auto;html=1;fontSize=13;entryX=0;entryY=0.5;entryDx=0;entryDy=0;" edge="1" parent="1" source="02rroqqpWlZLRVG9VPpe-2" target="02rroqqpWlZLRVG9VPpe-3">
          <mxGeometry relative="1" as="geometry">
            <mxPoint x="630" y="420" as="targetPoint" />
          </mxGeometry>
        </mxCell>
        <mxCell id="02rroqqpWlZLRVG9VPpe-32" value="header：&lt;br&gt;x-fc-tenant-name=xdr-arch-dkt" style="edgeLabel;html=1;align=center;verticalAlign=middle;resizable=0;points=[];fontSize=13;labelBackgroundColor=none;" vertex="1" connectable="0" parent="02rroqqpWlZLRVG9VPpe-23">
          <mxGeometry x="-0.2643" y="-2" relative="1" as="geometry">
            <mxPoint x="26" y="-24" as="offset" />
          </mxGeometry>
        </mxCell>
        <mxCell id="02rroqqpWlZLRVG9VPpe-24" style="edgeStyle=none;rounded=0;orthogonalLoop=1;jettySize=auto;html=1;entryX=0;entryY=0.5;entryDx=0;entryDy=0;fontSize=13;" edge="1" parent="1" source="02rroqqpWlZLRVG9VPpe-2" target="02rroqqpWlZLRVG9VPpe-8">
          <mxGeometry relative="1" as="geometry" />
        </mxCell>
        <mxCell id="02rroqqpWlZLRVG9VPpe-34" value="header：&lt;br style=&quot;border-color: var(--border-color);&quot;&gt;&lt;span style=&quot;&quot;&gt;x-fc-tenant-name=xdr-arch-wylu&lt;/span&gt;" style="edgeLabel;html=1;align=center;verticalAlign=middle;resizable=0;points=[];fontSize=13;labelBackgroundColor=none;" vertex="1" connectable="0" parent="02rroqqpWlZLRVG9VPpe-24">
          <mxGeometry x="-0.1809" relative="1" as="geometry">
            <mxPoint y="-1" as="offset" />
          </mxGeometry>
        </mxCell>
        <mxCell id="02rroqqpWlZLRVG9VPpe-28" style="edgeStyle=none;rounded=0;orthogonalLoop=1;jettySize=auto;html=1;entryX=0.5;entryY=1;entryDx=0;entryDy=0;fontSize=13;" edge="1" parent="1">
          <mxGeometry relative="1" as="geometry">
            <mxPoint x="450" y="390" as="sourcePoint" />
            <mxPoint x="450" y="330" as="targetPoint" />
          </mxGeometry>
        </mxCell>
        <mxCell id="02rroqqpWlZLRVG9VPpe-2" value="Sidecar Envoy" style="rounded=1;whiteSpace=wrap;html=1;" vertex="1" parent="1">
          <mxGeometry x="420" y="390" width="120" height="60" as="geometry" />
        </mxCell>
        <mxCell id="02rroqqpWlZLRVG9VPpe-3" value="&lt;p style=&quot;line-height: 80%;&quot;&gt;HTML Proxy&lt;br style=&quot;border-color: var(--border-color);&quot;&gt;&lt;br style=&quot;border-color: var(--border-color);&quot;&gt;label：version=v2&lt;br&gt;&lt;/p&gt;" style="rounded=1;whiteSpace=wrap;html=1;" vertex="1" parent="1">
          <mxGeometry x="730" y="375" width="120" height="60" as="geometry" />
        </mxCell>
        <mxCell id="02rroqqpWlZLRVG9VPpe-25" style="edgeStyle=none;rounded=0;orthogonalLoop=1;jettySize=auto;html=1;entryX=0;entryY=0.5;entryDx=0;entryDy=0;fontSize=13;" edge="1" parent="1" source="02rroqqpWlZLRVG9VPpe-4" target="02rroqqpWlZLRVG9VPpe-6">
          <mxGeometry relative="1" as="geometry" />
        </mxCell>
        <mxCell id="02rroqqpWlZLRVG9VPpe-4" value="Static Resource Proxy" style="rounded=1;whiteSpace=wrap;html=1;" vertex="1" parent="1">
          <mxGeometry x="420" y="590" width="120" height="60" as="geometry" />
        </mxCell>
        <mxCell id="02rroqqpWlZLRVG9VPpe-20" style="rounded=0;orthogonalLoop=1;jettySize=auto;html=1;entryX=0;entryY=0.5;entryDx=0;entryDy=0;fontSize=13;" edge="1" parent="1" source="02rroqqpWlZLRVG9VPpe-5" target="02rroqqpWlZLRVG9VPpe-2">
          <mxGeometry relative="1" as="geometry" />
        </mxCell>
        <mxCell id="02rroqqpWlZLRVG9VPpe-26" value="header：&lt;br&gt;x-fc-tenant-name=tenant-name" style="edgeLabel;html=1;align=center;verticalAlign=middle;resizable=0;points=[];fontSize=13;labelBackgroundColor=none;" vertex="1" connectable="0" parent="02rroqqpWlZLRVG9VPpe-20">
          <mxGeometry x="0.185" y="-3" relative="1" as="geometry">
            <mxPoint x="-24" y="2" as="offset" />
          </mxGeometry>
        </mxCell>
        <mxCell id="02rroqqpWlZLRVG9VPpe-21" style="edgeStyle=none;rounded=0;orthogonalLoop=1;jettySize=auto;html=1;entryX=0;entryY=0.5;entryDx=0;entryDy=0;fontSize=13;" edge="1" parent="1" source="02rroqqpWlZLRVG9VPpe-5" target="02rroqqpWlZLRVG9VPpe-4">
          <mxGeometry relative="1" as="geometry" />
        </mxCell>
        <mxCell id="02rroqqpWlZLRVG9VPpe-5" value="APISIX" style="rounded=1;whiteSpace=wrap;html=1;" vertex="1" parent="1">
          <mxGeometry x="160" y="480" width="120" height="60" as="geometry" />
        </mxCell>
        <mxCell id="02rroqqpWlZLRVG9VPpe-6" value="PVC" style="rounded=1;whiteSpace=wrap;html=1;fillColor=default;" vertex="1" parent="1">
          <mxGeometry x="740" y="690" width="120" height="60" as="geometry" />
        </mxCell>
        <mxCell id="02rroqqpWlZLRVG9VPpe-7" value="&lt;p style=&quot;line-height: 80%;&quot;&gt;HTML Proxy&lt;br&gt;&lt;br&gt;label：version=v1&lt;/p&gt;" style="rounded=1;whiteSpace=wrap;html=1;" vertex="1" parent="1">
          <mxGeometry x="730" y="245" width="120" height="60" as="geometry" />
        </mxCell>
        <mxCell id="02rroqqpWlZLRVG9VPpe-8" value="&lt;p style=&quot;line-height: 80%;&quot;&gt;HTML Proxy&lt;br style=&quot;border-color: var(--border-color);&quot;&gt;&lt;br style=&quot;border-color: var(--border-color);&quot;&gt;label：version=v3&lt;/p&gt;" style="rounded=1;whiteSpace=wrap;html=1;" vertex="1" parent="1">
          <mxGeometry x="730" y="505" width="120" height="60" as="geometry" />
        </mxCell>
        <mxCell id="02rroqqpWlZLRVG9VPpe-9" value="" style="endArrow=classic;html=1;rounded=0;entryX=0;entryY=0.5;entryDx=0;entryDy=0;" edge="1" parent="1" target="02rroqqpWlZLRVG9VPpe-5">
          <mxGeometry width="50" height="50" relative="1" as="geometry">
            <mxPoint x="70" y="510" as="sourcePoint" />
            <mxPoint x="110" y="490" as="targetPoint" />
          </mxGeometry>
        </mxCell>
        <mxCell id="02rroqqpWlZLRVG9VPpe-10" value="Requests" style="edgeLabel;html=1;align=center;verticalAlign=middle;resizable=0;points=[];" vertex="1" connectable="0" parent="02rroqqpWlZLRVG9VPpe-9">
          <mxGeometry x="-0.01" relative="1" as="geometry">
            <mxPoint x="1" y="-10" as="offset" />
          </mxGeometry>
        </mxCell>
        <mxCell id="02rroqqpWlZLRVG9VPpe-16" value="" style="rounded=1;whiteSpace=wrap;html=1;fillStyle=auto;fillColor=none;opacity=50;dashed=1;strokeColor=default;strokeWidth=1;" vertex="1" parent="1">
          <mxGeometry x="690" y="180" width="200" height="440" as="geometry" />
        </mxCell>
        <mxCell id="02rroqqpWlZLRVG9VPpe-17" value="&lt;p style=&quot;text-align: justify; line-height: 120%; font-size: 13px;&quot;&gt;&lt;font style=&quot;font-size: 13px;&quot;&gt;ns: xdr-arch-dkt&lt;/font&gt;&lt;/p&gt;&lt;p style=&quot;text-align: justify; line-height: 120%; font-size: 13px;&quot;&gt;&lt;font style=&quot;font-size: 13px;&quot;&gt;&lt;br&gt;&lt;/font&gt;&lt;/p&gt;&lt;p style=&quot;text-align: justify; line-height: 120%; font-size: 13px;&quot;&gt;&lt;font style=&quot;font-size: 13px;&quot;&gt;&lt;br&gt;&lt;/font&gt;&lt;/p&gt;&lt;p style=&quot;text-align: justify; line-height: 100%; font-size: 13px;&quot;&gt;&lt;br&gt;&lt;/p&gt;" style="rounded=1;whiteSpace=wrap;html=1;fillStyle=auto;fillColor=none;opacity=50;strokeColor=#5e5e5e;align=center;" vertex="1" parent="1">
          <mxGeometry x="720" y="340" width="140" height="120" as="geometry" />
        </mxCell>
        <mxCell id="02rroqqpWlZLRVG9VPpe-18" value="&lt;p style=&quot;text-align: justify; line-height: 120%; font-size: 13px;&quot;&gt;&lt;font style=&quot;font-size: 13px;&quot;&gt;ns: frontend&lt;/font&gt;&lt;/p&gt;&lt;p style=&quot;text-align: justify; line-height: 120%; font-size: 13px;&quot;&gt;&lt;font style=&quot;font-size: 13px;&quot;&gt;&lt;br&gt;&lt;/font&gt;&lt;/p&gt;&lt;p style=&quot;text-align: justify; line-height: 120%; font-size: 13px;&quot;&gt;&lt;font style=&quot;font-size: 13px;&quot;&gt;&lt;br&gt;&lt;/font&gt;&lt;/p&gt;&lt;p style=&quot;text-align: justify; line-height: 100%; font-size: 13px;&quot;&gt;&lt;br&gt;&lt;/p&gt;" style="rounded=1;whiteSpace=wrap;html=1;fillStyle=auto;fillColor=none;opacity=50;strokeColor=#5e5e5e;align=center;" vertex="1" parent="1">
          <mxGeometry x="720" y="210" width="140" height="120" as="geometry" />
        </mxCell>
        <mxCell id="02rroqqpWlZLRVG9VPpe-19" value="&lt;p style=&quot;text-align: justify; line-height: 120%; font-size: 13px;&quot;&gt;&lt;font style=&quot;font-size: 13px;&quot;&gt;ns: xdr-arch-wylu&lt;/font&gt;&lt;/p&gt;&lt;p style=&quot;text-align: justify; line-height: 120%; font-size: 13px;&quot;&gt;&lt;font style=&quot;font-size: 13px;&quot;&gt;&lt;br&gt;&lt;/font&gt;&lt;/p&gt;&lt;p style=&quot;text-align: justify; line-height: 100%; font-size: 13px;&quot;&gt;&lt;br&gt;&lt;/p&gt;&lt;p style=&quot;text-align: justify; line-height: 100%; font-size: 13px;&quot;&gt;&lt;br&gt;&lt;/p&gt;" style="rounded=1;whiteSpace=wrap;html=1;fillStyle=auto;fillColor=none;opacity=50;strokeColor=#5e5e5e;align=center;" vertex="1" parent="1">
          <mxGeometry x="720" y="470" width="140" height="120" as="geometry" />
        </mxCell>
        <mxCell id="02rroqqpWlZLRVG9VPpe-29" style="edgeStyle=none;rounded=0;orthogonalLoop=1;jettySize=auto;html=1;entryX=0.5;entryY=0;entryDx=0;entryDy=0;fontSize=13;" edge="1" parent="1">
          <mxGeometry relative="1" as="geometry">
            <mxPoint x="510" y="330" as="sourcePoint" />
            <mxPoint x="510" y="390" as="targetPoint" />
          </mxGeometry>
        </mxCell>
        <mxCell id="02rroqqpWlZLRVG9VPpe-27" value="BFF" style="rounded=1;whiteSpace=wrap;html=1;fillStyle=auto;strokeColor=default;strokeWidth=1;fontSize=13;fillColor=default;opacity=50;" vertex="1" parent="1">
          <mxGeometry x="420" y="270" width="120" height="60" as="geometry" />
        </mxCell>
        <mxCell id="02rroqqpWlZLRVG9VPpe-36" value="&lt;p style=&quot;text-align: justify; line-height: 120%; font-size: 13px;&quot;&gt;&lt;font style=&quot;font-size: 13px;&quot;&gt;ns: frontend&lt;/font&gt;&lt;/p&gt;&lt;p style=&quot;text-align: justify; line-height: 120%; font-size: 13px;&quot;&gt;&lt;font style=&quot;font-size: 13px;&quot;&gt;&lt;br&gt;&lt;/font&gt;&lt;/p&gt;&lt;p style=&quot;text-align: justify; line-height: 120%; font-size: 13px;&quot;&gt;&lt;font style=&quot;font-size: 13px;&quot;&gt;&lt;br&gt;&lt;/font&gt;&lt;/p&gt;&lt;p style=&quot;text-align: justify; line-height: 100%; font-size: 13px;&quot;&gt;&lt;br&gt;&lt;/p&gt;" style="rounded=1;whiteSpace=wrap;html=1;fillStyle=auto;fillColor=none;opacity=50;strokeColor=#5e5e5e;align=center;" vertex="1" parent="1">
          <mxGeometry x="410" y="550" width="140" height="120" as="geometry" />
        </mxCell>
        <mxCell id="02rroqqpWlZLRVG9VPpe-37" value="&lt;p style=&quot;text-align: justify; line-height: 120%; font-size: 13px;&quot;&gt;&lt;font style=&quot;font-size: 13px;&quot;&gt;ns: frontend&lt;/font&gt;&lt;/p&gt;&lt;p style=&quot;text-align: justify; line-height: 120%; font-size: 13px;&quot;&gt;&lt;font style=&quot;font-size: 13px;&quot;&gt;&lt;br&gt;&lt;/font&gt;&lt;/p&gt;&lt;p style=&quot;text-align: justify; line-height: 120%; font-size: 13px;&quot;&gt;&lt;font style=&quot;font-size: 13px;&quot;&gt;&lt;br&gt;&lt;/font&gt;&lt;/p&gt;&lt;p style=&quot;text-align: justify; line-height: 100%; font-size: 13px;&quot;&gt;&lt;br&gt;&lt;/p&gt;" style="rounded=1;whiteSpace=wrap;html=1;fillStyle=auto;fillColor=none;opacity=50;strokeColor=#5e5e5e;align=center;" vertex="1" parent="1">
          <mxGeometry x="730" y="650" width="140" height="120" as="geometry" />
        </mxCell>
      </root>
    </mxGraphModel>
  </diagram>
</mxfile>
